<svg width="300" height="300" viewBox="0 0 117 145" fill="none" xmlns="http://www.w3.org/2000/svg">
<g clip-path="url(#clip0_166_8)" filter="url(#filter0_d_166_8)">
<g filter="url(#filter1_d_166_8)">
<path d="M83.1952 40.4947C83.6093 40.4962 83.9622 40.6648 84.254 41.0007C84.5458 41.3366 84.6908 41.7411 84.6892 42.2143C84.6875 42.6875 84.5396 43.091 84.2454 43.4248C83.9513 43.7586 83.5972 43.9247 83.1831 43.9233L83.0073 43.9226L81.6283 52.7839C81.5643 53.1944 81.3913 53.5331 81.1091 53.7999C80.8269 54.0668 80.5061 54.1996 80.1467 54.1983L65.1468 54.1452C64.7874 54.1439 64.4676 54.0088 64.1873 53.74C63.907 53.4711 63.7363 53.1313 63.6753 52.7203L62.359 43.8495L62.1832 43.8489C61.7692 43.8474 61.4163 43.6788 61.1245 43.3429C60.8327 43.0071 60.6876 42.6025 60.6893 42.1293C60.691 41.6561 60.8389 41.2526 61.1331 40.9188C61.4272 40.585 61.7813 40.4189 62.1954 40.4204L83.1952 40.4947ZM66.341 51.1494C66.5442 51.1323 66.7145 51.0324 66.8518 50.8499C66.9892 50.6673 67.0505 50.4599 67.0357 50.2277L66.6804 44.655C66.6656 44.4228 66.5784 44.2283 66.4188 44.0715C66.2592 43.9147 66.0778 43.8448 65.8746 43.862C65.6714 43.8791 65.5012 43.979 65.3638 44.1615C65.2264 44.3441 65.1651 44.5514 65.1799 44.7836L65.5352 50.3564C65.5501 50.5796 65.6295 50.7674 65.7735 50.9197C65.9174 51.072 66.0871 51.1485 66.2824 51.1492L66.341 51.1494ZM71.1604 50.3093L71.1801 44.7379C71.181 44.5058 71.1075 44.3046 70.9596 44.1345C70.8118 43.9643 70.6363 43.8788 70.4332 43.8781C70.2301 43.8774 70.054 43.9616 69.9049 44.1307C69.7559 44.2998 69.681 44.5005 69.6802 44.7326L69.6604 50.304C69.6596 50.5361 69.7331 50.7373 69.8809 50.9075C70.0288 51.0776 70.2043 51.1631 70.4074 51.1638C70.6105 51.1645 70.7866 51.0803 70.9356 50.9112C71.0847 50.7421 71.1596 50.5414 71.1604 50.3093ZM75.6604 50.3252L75.6801 44.7538C75.6809 44.5217 75.6074 44.3206 75.4596 44.1504C75.3118 43.9802 75.1363 43.8948 74.9332 43.8941C74.73 43.8933 74.554 43.9775 74.4049 44.1467C74.2559 44.3158 74.181 44.5164 74.1801 44.7485L74.1604 50.3199C74.1596 50.5521 74.2331 50.7532 74.3809 50.9234C74.5288 51.0936 74.7042 51.179 74.9074 51.1797C75.1105 51.1804 75.2866 51.0962 75.4356 50.9271C75.5846 50.758 75.6596 50.5574 75.6604 50.3252ZM79.7851 50.4068L80.1799 44.8367C80.1963 44.6047 80.1365 44.3969 80.0004 44.2133C79.8644 44.0298 79.6948 43.9288 79.4917 43.9102C79.2887 43.8916 79.1068 43.9602 78.9461 44.1159C78.7854 44.2715 78.6968 44.4654 78.6803 44.6975L78.2856 50.2676C78.2692 50.4997 78.329 50.7075 78.465 50.891C78.6011 51.0745 78.7707 51.1755 78.9737 51.1941L79.0323 51.1943C79.2276 51.195 79.3978 51.1197 79.5429 50.9685C79.688 50.8172 79.7687 50.63 79.7851 50.4068ZM66.2961 34.0598L65.1867 39.5738L63.6398 39.5683L64.8443 33.6663C64.9955 32.8811 65.3455 32.2417 65.8941 31.7481C66.4427 31.2545 67.0686 31.009 67.7717 31.0115L69.7287 31.0184C69.7295 30.7863 69.8045 30.5856 69.9535 30.4165C70.1025 30.2474 70.2786 30.1632 70.4818 30.1639L74.9817 30.1799C75.1848 30.1806 75.3603 30.266 75.5082 30.4362C75.656 30.6064 75.7295 30.8075 75.7287 31.0396L77.6857 31.0466C78.3888 31.0491 79.0129 31.299 79.5581 31.7965C80.1032 32.294 80.4486 32.9358 80.5942 33.7221L81.7569 39.6325L80.21 39.627L79.1397 34.1053C79.0552 33.7122 78.8786 33.3901 78.6099 33.1392C78.3413 32.8882 78.0312 32.7621 77.6796 32.7609L75.7226 32.7539C75.7218 32.9861 75.6469 33.1867 75.4978 33.3558C75.3488 33.5249 75.1727 33.6091 74.9696 33.6084L70.4696 33.5925C70.2665 33.5918 70.091 33.5063 69.9432 33.3361C69.7953 33.166 69.7218 32.9648 69.7227 32.7327L67.7656 32.7257C67.4141 32.7245 67.1031 32.8484 66.8327 33.0974C66.5623 33.3465 66.3834 33.6673 66.2961 34.0598Z" fill="#FFA451"/>
</g>
</g>
<path d="M52.1181 67.8589C52.0876 67.9988 52.1473 68.099 52.2973 68.0996L52.6973 68.101C52.7773 68.1013 52.8675 68.0316 52.8778 67.9616L53.766 62.8147C53.776 62.8148 53.796 62.8149 53.806 62.8149L55.6473 68.1014C55.6671 68.1615 55.7569 68.2118 55.8169 68.212L55.9969 68.2127C56.0569 68.2129 56.1471 68.1632 56.1673 68.1033L58.026 62.8298C58.036 62.8299 58.056 62.8299 58.066 62.83L58.9377 67.9831C58.9575 68.0532 59.0372 68.1234 59.1172 68.1237L59.5172 68.1251C59.6672 68.1257 59.7276 68.0259 59.6981 67.8858L58.4319 61.1613C58.4122 61.0812 58.3324 61.0209 58.2524 61.0206L58.0924 61.0201C58.0224 61.0198 57.9422 61.0695 57.922 61.1295L55.9525 66.6325C55.9325 66.6324 55.9225 66.6324 55.9025 66.6323L53.942 61.1154C53.9222 61.0553 53.8424 61.005 53.7724 61.0048L53.6124 61.0042C53.5324 61.0039 53.4522 61.0636 53.4319 61.1436L52.1181 67.8589ZM62.0543 68.1241L60.7645 70.8796C60.694 71.0193 60.7736 71.1296 60.9236 71.1301L61.2936 71.1315C61.3636 71.1317 61.4338 71.072 61.464 71.0121L64.5576 64.373C64.628 64.2432 64.5584 64.143 64.4084 64.1424L64.0284 64.1411C63.9584 64.1408 63.8882 64.1906 63.858 64.2505L62.4472 67.3055L62.4372 67.3055L60.968 64.2403C60.9382 64.1802 60.8784 64.1299 60.7984 64.1297L60.3584 64.1281C60.2084 64.1276 60.1481 64.2174 60.2076 64.3476L62.0543 68.1241ZM67.6499 67.9639C67.6495 68.0639 67.7392 68.1543 67.8392 68.1546L68.0492 68.1554C68.1392 68.1557 68.1995 68.0859 68.2198 67.996L68.2807 67.7262C68.2807 67.7262 68.7588 68.2579 69.5088 68.2605C70.5288 68.2641 71.3322 67.307 71.3363 66.157C71.3404 64.987 70.6237 64.0644 69.4237 64.0602C68.7637 64.0579 68.3528 64.3164 68.3528 64.3164L68.3633 61.3464C68.3637 61.2464 68.274 61.1561 68.174 61.1558L67.864 61.1547C67.764 61.1543 67.6737 61.244 67.6733 61.344L67.6499 67.9639ZM68.3534 66.9664L68.3605 64.9664C68.3605 64.9664 68.7813 64.7279 69.3313 64.7299C70.2013 64.733 70.6391 65.3645 70.6363 66.1645C70.6335 66.9445 70.1711 67.6329 69.4411 67.6303C68.7211 67.6277 68.3534 66.9664 68.3534 66.9664ZM72.1777 66.96C72.1749 67.76 72.703 68.2718 73.403 68.2743C74.023 68.2765 74.4341 67.968 74.6449 67.7587L74.7239 68.029C74.7536 68.1191 74.7834 68.1792 74.8934 68.1796L75.0834 68.1803C75.1834 68.1806 75.2737 68.0909 75.2741 67.9909L75.2819 65.771C75.2861 64.601 75.0379 64.0801 74.0179 64.0765C73.2679 64.0738 72.6871 64.3018 72.627 64.3315C72.5369 64.3712 72.4766 64.431 72.5162 64.5512L72.5953 64.8014C72.625 64.8915 72.6848 64.9418 72.785 64.9021C72.9652 64.8327 73.4358 64.6844 73.9857 64.6864C74.5557 64.6884 74.6445 65.0287 74.6319 65.7687C74.6319 65.7687 74.2124 65.6372 73.7824 65.6356C72.7524 65.632 72.1804 66.2 72.1777 66.96ZM72.8177 66.9622C72.8195 66.4422 73.2205 66.1637 73.7805 66.1656C74.2205 66.1672 74.5002 66.2582 74.6199 66.3286L74.6171 67.1186C74.4463 67.368 74.0152 67.6765 73.5152 67.6747C73.0852 67.6732 72.8163 67.3622 72.8177 66.9622ZM76.4738 67.8352C76.6932 68.006 77.1022 68.2874 77.7722 68.2898C78.5922 68.2927 79.1542 67.7447 79.1562 67.1647C79.1588 66.4447 78.5399 66.1325 77.851 65.8001C77.4418 65.5986 77.1123 65.4474 77.1135 65.1174C77.1141 64.9474 77.2349 64.7179 77.6849 64.7195C78.0549 64.7208 78.484 64.9623 78.484 64.9623C78.5738 65.0126 78.7139 64.9831 78.7743 64.8733L78.8549 64.7136C78.9153 64.6038 78.8858 64.4637 78.796 64.4034C78.6065 64.2727 78.2071 64.0913 77.6871 64.0895C76.7571 64.0862 76.4149 64.705 76.4134 65.125C76.411 65.805 77.0198 66.1571 77.5489 66.419C78.1278 66.711 78.4273 66.8721 78.426 67.2221C78.4251 67.4921 78.1843 67.7012 77.7743 67.6998C77.2643 67.698 76.8356 67.3465 76.8356 67.3465C76.7258 67.2761 76.6157 67.2957 76.5655 67.3755C76.5353 67.4254 76.4648 67.5652 76.4246 67.625C76.3943 67.6949 76.424 67.795 76.4738 67.8352ZM80.2377 68.0085C80.2373 68.1085 80.327 68.1988 80.427 68.1992L80.737 68.2003C80.837 68.2006 80.9273 68.111 80.9277 68.011L80.9341 66.191L82.9573 68.1281C82.9972 68.1583 83.067 68.2085 83.157 68.2089L83.707 68.2108C83.877 68.2114 83.8876 68.0314 83.8079 67.9612L81.6049 65.9733L83.5103 64.4601C83.5805 64.4003 83.5912 64.2104 83.4212 64.2098L82.8812 64.2079C82.8012 64.2076 82.721 64.2573 82.6407 64.327L80.9358 65.721L80.9511 61.391C80.9515 61.291 80.8618 61.2007 80.7618 61.2003L80.4518 61.1992C80.3518 61.1989 80.2615 61.2886 80.2611 61.3886L80.2377 68.0085ZM84.3484 66.2131C84.3443 67.3631 85.0909 68.3157 86.3009 68.32C86.9909 68.3224 87.5319 68.0543 87.7725 67.8652C87.9229 67.7557 87.8831 67.6956 87.8135 67.6053C87.7538 67.5251 87.704 67.455 87.6443 67.3747C87.5647 67.2645 87.5045 67.3142 87.3642 67.3938C87.1337 67.5329 86.7932 67.6917 86.3732 67.6902C85.6632 67.6877 85.0754 67.0556 85.0378 66.3855L87.9178 66.3957C88.0078 66.396 88.088 66.3263 88.0984 66.2263C88.1086 66.1564 88.1191 66.0264 88.1193 65.9564C88.123 64.9064 87.3658 64.1237 86.3158 64.12C85.1058 64.1157 84.3524 65.0831 84.3484 66.2131ZM85.0498 65.8255C85.1219 65.2058 85.6436 64.7276 86.3136 64.73C86.9236 64.7322 87.4018 65.2539 87.4297 65.834L85.0498 65.8255ZM89.4651 67.2312C89.4629 67.8512 89.5812 68.3316 90.3812 68.3344C90.8512 68.3361 91.3921 68.088 91.5324 67.9985C91.6427 67.9289 91.6729 67.869 91.6033 67.7488L91.4542 67.4982C91.4045 67.4181 91.3647 67.3579 91.2144 67.4374C91.0841 67.5069 90.7336 67.6557 90.4836 67.6548C90.2536 67.654 90.1539 67.5736 90.1553 67.1736L90.1636 64.8336L91.3236 64.8378C91.4336 64.8381 91.5139 64.7484 91.5143 64.6484L91.5151 64.4284C91.5154 64.3184 91.4357 64.2381 91.3257 64.2378L90.1657 64.2337L90.1697 63.1037C90.1701 63.0037 90.0904 62.9134 89.9904 62.913L89.6703 62.9319C89.5703 62.9315 89.48 63.0212 89.4797 63.1212L89.4757 64.2312L88.9657 64.2294C88.8557 64.229 88.7755 64.3087 88.7751 64.4187L88.7743 64.6387C88.7739 64.7387 88.8536 64.829 88.9636 64.8294L89.4736 64.8312L89.4651 67.2312Z" fill="#27214D"/>
<defs>
<filter id="filter0_d_166_8" x="0.646851" y="0.129395" width="144.085" height="144.085" filterUnits="userSpaceOnUse" color-interpolation-filters="sRGB">
<feFlood flood-opacity="0" result="BackgroundImageFix"/>
<feColorMatrix in="SourceAlpha" type="matrix" values="0 0 0 0 0 0 0 0 0 0 0 0 0 0 0 0 0 0 127 0" result="hardAlpha"/>
<feOffset dy="30"/>
<feGaussianBlur stdDeviation="30"/>
<feColorMatrix type="matrix" values="0 0 0 0 0 0 0 0 0 0 0 0 0 0 0 0 0 0 0.2 0"/>
<feBlend mode="normal" in2="BackgroundImageFix" result="effect1_dropShadow_166_8"/>
<feBlend mode="normal" in="SourceGraphic" in2="effect1_dropShadow_166_8" result="shape"/>
</filter>
<filter id="filter1_d_166_8" x="56.6893" y="30.1638" width="31.9999" height="32.0344" filterUnits="userSpaceOnUse" color-interpolation-filters="sRGB">
<feFlood flood-opacity="0" result="BackgroundImageFix"/>
<feColorMatrix in="SourceAlpha" type="matrix" values="0 0 0 0 0 0 0 0 0 0 0 0 0 0 0 0 0 0 127 0" result="hardAlpha"/>
<feOffset dy="4"/>
<feGaussianBlur stdDeviation="2"/>
<feComposite in2="hardAlpha" operator="out"/>
<feColorMatrix type="matrix" values="0 0 0 0 0 0 0 0 0 0 0 0 0 0 0 0 0 0 0.25 0"/>
<feBlend mode="normal" in2="BackgroundImageFix" result="effect1_dropShadow_166_8"/>
<feBlend mode="normal" in="SourceGraphic" in2="effect1_dropShadow_166_8" result="shape"/>
</filter>
<clipPath id="clip0_166_8">
<rect width="24" height="24" fill="white" transform="translate(60.7318 30.1294) rotate(0.202891)"/>
</clipPath>
</defs>
</svg>
